<svg version="1.1" id="Layer_1" xmlns="http://www.w3.org/2000/svg" xmlns:xlink="http://www.w3.org/1999/xlink" x="0px" y="0px" viewBox="0 0 250 250" style="enable-background:new 0 0 250 250;" xml:space="preserve">
 <g id="NYY_-_3313">
	<g id="Compass_copy_29">
		<g id="Compass_32_">
			<polygon class="st0" points="235.9,200.6 226.8,201.1 219.1,198.7 227.1,197.9 			"/>
			<path class="st1" d="M242.4,201.1c-0.9,8.5-8.5,14.7-17,13.9c-8.5-0.9-14.7-8.5-13.9-17c0.9-8.5,8.5-14.7,17-13.9
				C237.1,185,243.3,192.6,242.4,201.1z M212.9,198.1c-0.8,7.8,4.9,14.8,12.7,15.5c7.8,0.8,14.8-4.9,15.5-12.7
				c0.8-7.8-4.9-14.8-12.7-15.5C220.7,184.6,213.7,190.3,212.9,198.1z"/>
			<ellipse transform="matrix(0.7749 -0.632 0.632 0.7749 -75.0173 188.3589)" class="st0" cx="227" cy="199.5" rx="3" ry="3"/>
			<g>
				<path class="st0" d="M217.7,199.8l-3.1-0.3V199l2.3-1.2l0,0l-2.1-0.2l0.1-0.5l3.1,0.3v0.5l-2.3,1.2l0,0l2.1,0.2L217.7,199.8z"/>
			</g>
			
				<ellipse transform="matrix(0.7749 -0.6321 0.6321 0.7749 -75.0069 188.3922)" class="st2" cx="227" cy="199.5" rx="1.6" ry="1.6"/>
		</g>
	</g>
	<path class="st3" d="M125.8,230.5c-14,0-23-11.4-23-11.4l-34.5-43.8l-19.2-42.9l-19.3-18c-7.3-21.3,1.8-36.1,1.8-36.1L63.5,44
		c0,0,36.8-16.2,62.1-16.2c31.2,0,53.9,17.9,53.9,17.9s38.2,49.8,41.2,54s0,12.4,0,12.4l-14.4,16.5l-24,43.9l-35.9,46.6
		C146.5,219.2,138.8,230.5,125.8,230.5z"/>
	<path class="st4" d="M125.6,222.9c-11-0.1-17.1-8.6-17.1-8.6c-3.8-5.6-34-41.8-34-41.8l-22.3-45.1c0,0-3.5-3.7-12.2-12.8
		c-8.8-9.1-3.5-32.9-3.5-32.9l29.8-31.9c0,0,29.6-17.2,58.4-16.6c30.7,0.7,48.8,15.9,48.8,15.9l44.3,55.5c0,0-18.6,18.9-20.5,21.7
		c-0.8,1.1-23.9,43.4-23.9,43.4s-28.7,41.2-32.1,45C141.3,214.7,136.8,223,125.6,222.9z"/>
	<g id="infield_sand_copy_21">
		<path class="st3" d="M164.3,168.5c0,0-12-31-38.8-30.8c-27.3,0.2-39.4,30.1-39.4,30.1l32.5,31.2c-1.2,1.1-1.6,3.3-1.6,4.5
			c0,4.4,3.7,8,8.2,8s8.2-3.6,8.2-8c0-1.4-0.4-2.8-1.1-4L164.3,168.5z M125.1,195.5c-1.2,0-2.3,0.2-3.3,0.7L103,177.5
			c0,0,2.4-3,3.5-4.2s-0.2-4-0.2-4l14.2-13.9c1.3,0.9,3,1.5,4.8,1.5c1.7,0,3.3-0.5,4.6-1.4l14.9,14.5c-0.4,1.3-1.7,2.7-0.6,3.9
			l3.1,3.5l-18.9,18.7C127.4,195.7,126.3,195.5,125.1,195.5z"/>
	</g>
	<text transform="matrix(1 0 0 1 6.3765 101.2637)" class="st4 st5 st6">318</text>
	<text transform="matrix(1 0 0 1 221.4399 86.7764)" class="st4 st5 st6">314</text>
	<text transform="matrix(1 0 0 1 187.3403 48.6826)" class="st4 st5 st6">385</text>
	<text transform="matrix(1 0 0 1 113.4136 25.0869)" class="st4 st5 st6">408</text>
	<text transform="matrix(1 0 0 1 42.123 36.1895)" class="st4 st5 st6">399</text>
</g>
<g id="Pitchers_mound">
	
		<ellipse transform="matrix(0.7071 -0.7071 0.7071 0.7071 -88.8446 140.5533)" class="st7" cx="125.2" cy="177.5" rx="3.8" ry="3.8"/>
</g>
<g id="Bases_and_chalk_lines-ALL">
	<g>
		<path class="st8" d="M15.6,93.6"/>
		<path class="st8" d="M125.2,204.3"/>
		<path class="st8" d="M232,94.3"/>
	</g>
	<rect x="123.2" y="176.7" class="st9" width="4" height="1.6"/>
	<rect x="98.4" y="174.6" transform="matrix(0.7073 -0.7069 0.7069 0.7073 -95.2588 122.1877)" class="st9" width="3" height="3"/>
	<rect x="148.9" y="174.6" transform="matrix(0.7073 -0.7069 0.7069 0.7073 -80.4682 157.8775)" class="st9" width="3" height="3"/>
	<rect x="123.7" y="149.3" transform="matrix(0.707 -0.7073 0.7073 0.707 -69.9671 132.7213)" class="st9" width="3" height="3"/>
	<polygon class="st9" points="126.7,201.9 125.2,203.4 123.7,201.9 123.7,200.4 126.7,200.4 	"/>
	<polyline class="st10" points="234.6,94.3 125.2,203.5 17.9,96.2 	"/>
</g>
</svg>